<svg xmlns="http://www.w3.org/2000/svg" width="1280" height="520" viewBox="0 0 1280 520">
  <rect width="1280" height="520" fill="#f6f8fa"/>
  <text x="70" y="78" font-family="Arial, 'PingFang SC', sans-serif" font-size="38" font-weight="800" fill="#0b1f44">设置一次，之后随时在 Discord 问</text>
  <g font-family="Arial, 'PingFang SC', sans-serif">
    <rect x="80" y="170" width="220" height="130" rx="22" fill="#ffffff" stroke="#d0d7de" stroke-width="2"/>
    <text x="120" y="222" font-size="24" font-weight="800" fill="#0b1f44">刷新</text>
    <text x="120" y="258" font-size="17" fill="#57606a">每周抓一次 Amex</text>

    <rect x="370" y="170" width="220" height="130" rx="22" fill="#ffffff" stroke="#d0d7de" stroke-width="2"/>
    <text x="410" y="222" font-size="24" font-weight="800" fill="#0b1f44">保存</text>
    <text x="410" y="258" font-size="17" fill="#57606a">SQLite 存到过期</text>

    <rect x="660" y="170" width="220" height="130" rx="22" fill="#ffffff" stroke="#d0d7de" stroke-width="2"/>
    <text x="700" y="222" font-size="24" font-weight="800" fill="#0b1f44">推理</text>
    <text x="700" y="258" font-size="17" fill="#57606a">Offers + 权益</text>

    <rect x="950" y="170" width="220" height="130" rx="22" fill="#ffffff" stroke="#d0d7de" stroke-width="2"/>
    <text x="990" y="222" font-size="24" font-weight="800" fill="#0b1f44">回答</text>
    <text x="990" y="258" font-size="17" fill="#57606a">手机 Discord 查询</text>
  </g>
  <g stroke="#0969da" stroke-width="6" stroke-linecap="round" fill="none">
    <path d="M300 235 C320 235 345 235 370 235"/>
    <path d="M590 235 C610 235 635 235 660 235"/>
    <path d="M880 235 C900 235 925 235 950 235"/>
  </g>
  <g fill="#0969da">
    <path d="M365 226 L385 235 L365 244 Z"/>
    <path d="M655 226 L675 235 L655 244 Z"/>
    <path d="M945 226 L965 235 L945 244 Z"/>
  </g>
  <rect x="324" y="370" width="632" height="76" rx="20" fill="#0b1f44"/>
  <text x="374" y="418" font-family="Menlo, Consolas, monospace" font-size="20" fill="#ffffff">/addoffer 或 npm run add-offer</text>
</svg>
