<svg xmlns="http://www.w3.org/2000/svg" width="1280" height="760" viewBox="0 0 1280 760">
  <rect width="1280" height="760" fill="#f6f8fa"/>
  <text x="70" y="78" font-family="Arial, sans-serif" font-size="40" font-weight="800" fill="#0b1f44">Everything feeds one checkout decision</text>
  <text x="70" y="116" font-family="Arial, sans-serif" font-size="20" fill="#57606a">Offers, benefits, points, cashback, and deal news are not separate chores anymore.</text>

  <rect x="438" y="278" width="404" height="168" rx="28" fill="#0b1f44"/>
  <text x="510" y="342" font-family="Arial, sans-serif" font-size="30" font-weight="800" fill="#ffffff">Decision Engine</text>
  <text x="494" y="382" font-family="Arial, sans-serif" font-size="18" fill="#c9d1d9">Search active offers + card benefits</text>
  <text x="528" y="414" font-family="Arial, sans-serif" font-size="18" fill="#c9d1d9">Return the best payment move</text>

  <g font-family="Arial, sans-serif">
    <rect x="70" y="178" width="292" height="132" rx="22" fill="#ddf4ff" stroke="#54aeef" stroke-width="2"/>
    <text x="102" y="228" font-size="24" font-weight="800" fill="#0b1f44">Offer Import</text>
    <text x="102" y="262" font-size="17" fill="#57606a">Add user-provided offers</text>
    <text x="102" y="288" font-size="17" fill="#57606a">Search them until expiry</text>

    <rect x="70" y="358" width="292" height="132" rx="22" fill="#dafbe1" stroke="#2da44e" stroke-width="2"/>
    <text x="102" y="408" font-size="24" font-weight="800" fill="#0b1f44">Manual Offers</text>
    <text x="102" y="442" font-size="17" fill="#57606a">Email, app, account messages</text>
    <text x="102" y="468" font-size="17" fill="#57606a">Paste or add targeted deals</text>

    <rect x="70" y="538" width="292" height="132" rx="22" fill="#fff8c5" stroke="#d4a72c" stroke-width="2"/>
    <text x="102" y="588" font-size="24" font-weight="800" fill="#0b1f44">Credit Card News</text>
    <text x="102" y="622" font-size="17" fill="#57606a">Hot discussions each morning</text>
    <text x="102" y="648" font-size="17" fill="#57606a">Push digest to Discord</text>

    <rect x="918" y="178" width="292" height="132" rx="22" fill="#fbefff" stroke="#bf87ff" stroke-width="2"/>
    <text x="950" y="228" font-size="24" font-weight="800" fill="#0b1f44">Card Benefits</text>
    <text x="950" y="262" font-size="17" fill="#57606a">Credits and bonus categories</text>
    <text x="950" y="288" font-size="17" fill="#57606a">Merchant/category reasoning</text>

    <rect x="918" y="358" width="292" height="132" rx="22" fill="#ffebe9" stroke="#ff8182" stroke-width="2"/>
    <text x="950" y="408" font-size="24" font-weight="800" fill="#0b1f44">Wallet Strategy</text>
    <text x="950" y="442" font-size="17" fill="#57606a">Points vs cashback</text>
    <text x="950" y="468" font-size="17" fill="#57606a">Benefits-only card logic</text>

    <rect x="918" y="538" width="292" height="132" rx="22" fill="#eaeef2" stroke="#8c959f" stroke-width="2"/>
    <text x="950" y="588" font-size="24" font-weight="800" fill="#0b1f44">Local Privacy</text>
    <text x="950" y="622" font-size="17" fill="#57606a">SQLite on your machine</text>
    <text x="950" y="648" font-size="17" fill="#57606a">No password or MFA storage</text>
  </g>

  <g stroke="#8c959f" stroke-width="4" stroke-linecap="round">
    <line x1="362" y1="244" x2="438" y2="324"/>
    <line x1="362" y1="424" x2="438" y2="370"/>
    <line x1="362" y1="604" x2="438" y2="416"/>
    <line x1="842" y1="324" x2="918" y2="244"/>
    <line x1="842" y1="370" x2="918" y2="424"/>
    <line x1="842" y1="416" x2="918" y2="604"/>
  </g>

  <rect x="438" y="540" width="404" height="78" rx="20" fill="#ffffff" stroke="#d0d7de"/>
  <text x="476" y="589" font-family="Menlo, Consolas, monospace" font-size="20" fill="#0b1f44">/offers query:restaurant</text>
</svg>
